<svg xmlns="http://www.w3.org/2000/svg" viewBox="0 0 400 400"><defs><style>.cls-1{fill:none;}.cls-2{fill:#06c755;}.cls-3{fill:#fff;}</style></defs><title>資產 1</title><g id="圖層_2" data-name="圖層 2"><g id="圖層_1-2" data-name="圖層 1"><rect class="cls-1" width="400" height="400"/><path class="cls-2" d="M287.86,360H112.14A72.14,72.14,0,0,1,40,287.86V112.14A72.14,72.14,0,0,1,112.14,40H287.86A72.14,72.14,0,0,1,360,112.14V287.86A72.14,72.14,0,0,1,287.86,360"/><path class="cls-3" d="M306.66,184.92c0-47.74-47.86-86.58-106.69-86.58S93.28,137.18,93.28,184.92c0,42.8,37.95,78.65,89.22,85.42,3.48.75,8.21,2.29,9.4,5.26,1.08,2.7.71,6.93.35,9.65,0,0-1.25,7.53-1.53,9.13-.46,2.7-2.14,10.55,9.25,5.76s61.44-36.18,83.82-61.95h0c15.46-16.95,22.87-34.16,22.87-53.27"/><path class="cls-2" d="M271.16,212.49h-30a2,2,0,0,1-2-2v0h0V163.94h0v-.05a2,2,0,0,1,2-2h30a2,2,0,0,1,2,2v7.57a2,2,0,0,1-2,2H250.79v7.85h20.37a2,2,0,0,1,2,2V191a2,2,0,0,1-2,2H250.79v7.86h20.37a2,2,0,0,1,2,2v7.56a2,2,0,0,1-2,2"/><path class="cls-2" d="M160.29,212.49a2,2,0,0,0,2-2v-7.56a2,2,0,0,0-2-2H139.92v-37a2,2,0,0,0-2-2h-7.57a2,2,0,0,0-2,2v46.53h0v0a2,2,0,0,0,2,2h30Z"/><path class="cls-2" d="M178.33,161.85h-7.56a2,2,0,0,0-2,2v46.56a2,2,0,0,0,2,2h7.56a2,2,0,0,0,2-2V163.89a2,2,0,0,0-2-2"/><path class="cls-2" d="M229.84,161.85h-7.56a2,2,0,0,0-2,2v27.66l-21.3-28.77a1.2,1.2,0,0,0-.17-.21v0l-.12-.12,0,0-.11-.09-.06,0-.11-.08-.06,0-.11-.06-.07,0L198,162l-.07,0-.12,0-.08,0-.12,0h-.08l-.11,0h-7.71a2,2,0,0,0-2,2v46.56a2,2,0,0,0,2,2h7.57a2,2,0,0,0,2-2V182.81l21.33,28.8a2,2,0,0,0,.52.52h0l.13.08.06,0,.1.05.1,0,.06,0,.15,0h0a2.35,2.35,0,0,0,.54.07h7.52a2,2,0,0,0,2-2V163.89a2,2,0,0,0-2-2"/></g></g></svg>